# Blender v2.69 (sub 0) OBJ File: 'noobtree.blend'
# www.blender.org
mtllib noobtree_leaves.mtl
o Cube2_default
v -1.055556 4.644444 -1.055555
v 0.000000 4.275000 -1.424999
v 0.000000 3.800000 0.000001
v -1.425000 4.275000 0.000001
v -1.055556 4.644444 1.055556
v 0.000000 4.275000 1.425001
v 0.000000 5.699999 1.900001
v -1.425000 5.700000 1.425001
v -1.055556 6.755556 -1.055555
v -1.425000 5.700000 -1.424999
v -1.900000 5.700000 0.000001
v -1.425000 7.125000 0.000001
v -1.055556 6.755556 1.055557
v 0.000000 7.125000 1.425001
v 1.055556 4.644444 -1.055555
v 0.000000 5.700000 -1.899999
v 1.425000 5.700000 -1.424999
v 1.900000 5.700000 0.000001
v 1.425000 4.275000 0.000001
v 1.055556 4.644444 1.055556
v 1.425000 5.700000 1.425001
v 1.055556 6.755556 -1.055555
v 0.000000 7.125000 -1.424999
v 0.000000 7.600000 0.000001
v 1.425000 7.125000 0.000001
v 1.055556 6.755556 1.055557
vt 0.000000 0.000000
vt 1.000000 0.000000
vt 0.000000 1.000000
vt 1.000000 1.000000
vn -0.577349 -0.577349 -0.577349
vn 0.000000 -0.707083 -0.707083
vn -0.707083 -0.707083 0.000000
vn -0.577349 -0.577349 0.577349
vn 0.000000 -0.707083 0.707083
vn -0.707083 0.000000 0.707083
vn -0.577349 0.577349 -0.577349
vn -0.707083 0.000000 -0.707083
vn -0.707083 0.707083 0.000000
vn -0.577349 0.577349 0.577349
vn 0.000000 0.707083 0.707083
vn 0.577349 -0.577349 -0.577349
vn 0.707083 0.000000 -0.707083
vn 0.707083 -0.707083 0.000000
vn 0.577349 -0.577349 0.577349
vn 0.707083 0.000000 0.707083
vn 0.577349 0.577349 -0.577349
vn 0.000000 0.707083 -0.707083
vn 0.707083 0.707083 0.000000
vn 0.577349 0.577349 0.577349
vn -1.000000 0.000000 0.000000
vn 0.000000 -1.000000 0.000000
vn 0.000000 1.000000 0.000000
vn 0.000000 0.000000 -1.000000
vn 0.000000 0.000000 1.000000
vn 1.000000 0.000000 0.000000
usemtl default
s 1
f 1/1/1 2/2/2 4/3/3
f 5/1/4 4/2/3 6/3/5
f 5/1/4 6/2/5 8/3/6
f 9/1/7 10/2/8 12/3/9
f 13/1/10 8/2/6 14/3/11
f 13/1/10 12/2/9 8/3/6
f 15/1/12 2/2/2 17/3/13
f 15/1/12 17/2/13 19/3/14
f 20/1/15 19/2/14 21/3/16
f 22/1/17 23/2/18 25/3/19
f 22/1/17 17/2/13 23/3/18
f 26/1/20 25/2/19 14/3/11
f 10/1/8 1/2/1 4/4/3
f 2/1/2 1/2/1 10/4/8
f 8/1/6 11/2/21 4/4/3
f 6/1/5 3/2/22 19/4/14
f 12/1/9 24/2/23 23/4/18
f 23/1/18 16/2/24 10/4/8
f 14/1/11 24/2/23 12/4/9
f 14/1/11 7/2/25 21/4/16
f 19/1/14 3/2/22 2/4/2
f 21/1/16 7/2/25 6/4/5
f 21/1/16 18/2/26 25/4/19
f 25/1/19 18/2/26 17/4/13
f 2/2/2 3/4/22 4/3/3
f 4/2/3 3/4/22 6/3/5
f 6/2/5 7/4/25 8/3/6
f 10/2/8 11/4/21 12/3/9
f 8/2/6 7/4/25 14/3/11
f 12/2/9 11/4/21 8/3/6
f 2/2/2 16/4/24 17/3/13
f 17/2/13 18/4/26 19/3/14
f 19/2/14 18/4/26 21/3/16
f 23/2/18 24/4/23 25/3/19
f 17/2/13 16/4/24 23/3/18
f 25/2/19 24/4/23 14/3/11
f 11/3/21 10/1/8 4/4/3
f 16/3/24 2/1/2 10/4/8
f 5/3/4 8/1/6 4/4/3
f 20/3/15 6/1/5 19/4/14
f 9/3/7 12/1/9 23/4/18
f 9/3/7 23/1/18 10/4/8
f 13/3/10 14/1/11 12/4/9
f 26/3/20 14/1/11 21/4/16
f 15/3/12 19/1/14 2/4/2
f 20/3/15 21/1/16 6/4/5
f 26/3/20 21/1/16 25/4/19
f 22/3/17 25/1/19 17/4/13
