# Blender v2.69 (sub 0) OBJ File: 'noobtree.blend'
# www.blender.org
mtllib noobtree.mtl
o Cube1_default
v -0.551543 0.000000 -0.551543
v 0.000000 0.000000 -0.780000
v 0.551543 0.000000 -0.551543
v 0.780000 -0.000000 0.000000
v 0.551543 -0.000000 0.551543
v 0.000000 -0.000000 0.780000
v -0.551543 -0.000000 0.551543
v -0.780000 0.000000 -0.000000
v 0.000000 4.000000 0.360001
v -0.254558 4.000000 0.254559
v -0.254558 4.000000 -0.254558
v 0.000000 4.000000 -0.359999
v -0.360000 4.000000 0.000001
v 0.254558 4.000000 -0.254558
v 0.360000 4.000000 0.000001
v 0.254558 4.000000 0.254559
vt 0.752897 0.011709
vt 0.900804 0.005794
vt 0.832539 1.005794
vt 0.647907 0.005794
vt 0.647908 1.003063
vt 0.443466 1.005794
vt 0.395009 1.003064
vt 0.500000 0.011709
vt 0.247103 0.011709
vt 0.190570 1.005794
vt 0.142113 0.005794
vt 0.579643 1.005794
vt -0.005794 0.011709
vt 0.073848 1.005794
vt 0.949261 1.005794
vt 0.900804 1.003064
vt 1.005794 0.011709
vt 0.326744 1.005794
vt 0.000000 0.000000
vt 0.696364 1.005794
vt 0.395010 0.005794
vt 0.142113 1.003063
vn -0.570574 -0.590594 0.570574
vn 0.000000 -0.590594 0.806940
vn -0.525468 0.669088 0.525468
vn 0.000000 -0.590594 -0.806940
vn -0.570574 -0.590594 -0.570574
vn 0.000000 0.669088 -0.743156
vn -0.743156 0.669088 0.000000
vn 0.570574 -0.590594 -0.570574
vn 0.525468 0.669088 -0.525468
vn 0.806940 -0.590594 0.000000
vn 0.570574 -0.590594 0.570574
vn 0.525468 0.669088 0.525468
vn 0.000000 0.669088 0.743156
vn -0.525468 0.669088 -0.525468
vn 0.743156 0.669088 0.000000
vn -0.806940 -0.590594 0.000000
usemtl default
s 1
f 7/1/1 6/2/2 10/3/3
f 2/4/4 1/1/5 12/5/6
f 10/6/3 13/7/7 7/8/1
f 3/9/8 14/10/9 4/11/10
f 3/8/8 2/4/4 14/12/9
f 5/13/11 4/11/10 16/14/12
f 16/15/12 9/16/13 5/17/11
f 11/18/14 1/9/5 13/7/7
f 16/19/12 15/19/15 14/19/9
f 4/19/10 5/19/11 3/19/8
f 6/2/2 9/16/13 10/3/3
f 1/1/5 11/20/14 12/5/6
f 13/7/7 8/21/16 7/8/1
f 14/10/9 15/22/15 4/11/10
f 2/4/4 12/5/6 14/12/9
f 4/11/10 15/22/15 16/14/12
f 9/16/13 6/2/2 5/17/11
f 1/9/5 8/21/16 13/7/7
f 9/19/13 16/19/12 10/19/3
f 16/19/12 14/19/9 10/19/3
f 14/19/9 12/19/6 11/19/14
f 10/19/3 14/19/9 13/19/7
f 14/19/9 11/19/14 13/19/7
f 5/19/11 6/19/2 3/19/8
f 7/19/1 8/19/16 1/19/5
f 6/19/2 7/19/1 1/19/5
f 3/19/8 6/19/2 2/19/4
f 6/19/2 1/19/5 2/19/4
