# Blender v2.69 (sub 0) OBJ File: 'player.blend'
# www.blender.org
mtllib player.mtl
o Cube3_default
v -0.745356 0.000000 0.745356
v -1.018176 0.000000 0.272819
v -1.018176 0.000000 -0.272819
v -0.745356 0.000000 -0.745356
v -0.272819 -0.000000 -1.018175
v 0.272819 -0.000000 -1.018175
v 0.745356 -0.000000 -0.745356
v 1.018175 -0.000000 -0.272819
v 1.018175 -0.000000 0.272820
v 0.745356 -0.000000 0.745356
v 0.272819 -0.000000 1.018176
v -0.272820 -0.000000 1.018176
v 1.018176 4.000000 0.272820
v 0.745356 4.000000 0.745356
v -0.745356 4.000000 0.745356
v -1.018175 4.000000 0.272819
v 0.272819 4.000000 1.018175
v -0.745356 4.000000 -0.745356
v -0.272819 4.000000 -1.018175
v -1.018175 4.000000 -0.272819
v 0.272820 4.000000 -1.018175
v 0.745356 4.000000 -0.745356
v 1.018176 4.000000 -0.272819
v -0.272819 4.000000 1.018175
vt 0.397808 0.015225
vt 0.454769 0.015225
vt 0.397808 0.726962
vt 0.029606 0.015225
vt 0.086567 0.015225
vt 0.029606 0.726962
vt 0.299149 0.726962
vt 0.908258 0.009254
vt 0.908258 0.732933
vt 0.805450 0.009254
vt 0.967614 0.009254
vt 0.583930 0.009254
vt 0.686738 0.009254
vt 0.583929 0.732933
vt 0.524573 0.732933
vt 0.086567 0.726962
vt 0.185226 0.726962
vt 0.299148 0.015225
vt 0.185226 0.015225
vt 0.454769 0.726962
vt 0.805450 0.732933
vt 0.284986 0.819927
vt 0.284986 0.891010
vt 0.249445 0.758368
vt 0.317803 0.825209
vt 0.351969 0.766032
vt 0.317803 0.893541
vt 0.967614 0.732933
vt 0.686737 0.732933
vt 0.524573 0.009254
vt 0.249445 0.952570
vt 0.187885 0.988111
vt 0.116802 0.988111
vt 0.019701 0.891010
vt 0.055243 0.952570
vt 0.187885 0.722826
vt 0.116802 0.722826
vt 0.019701 0.819927
vt 0.055243 0.758368
vt 0.351969 0.952718
vt 0.479479 0.986884
vt 0.411146 0.986884
vt 0.538656 0.952718
vt 0.411147 0.731866
vt 0.479479 0.731866
vt 0.572822 0.893541
vt 0.572822 0.825209
vt 0.538656 0.766032
vn 0.535386 -0.653218 0.535386
vn 0.731346 -0.653218 0.195959
vn 0.535386 0.653218 0.535386
vn -0.731346 -0.653218 0.195959
vn -0.535386 -0.653218 0.535386
vn -0.731346 0.653218 0.195959
vn 0.195959 0.653218 0.731346
vn -0.535386 -0.653218 -0.535386
vn -0.535386 0.653218 -0.535386
vn -0.195959 -0.653218 -0.731346
vn -0.731346 -0.653218 -0.195959
vn 0.535386 -0.653218 -0.535386
vn 0.195959 -0.653218 -0.731346
vn 0.535386 0.653218 -0.535386
vn 0.731346 0.653218 -0.195959
vn -0.535386 0.653218 0.535386
vn -0.195959 0.653218 0.731346
vn 0.195959 -0.653218 0.731346
vn -0.195959 -0.653218 0.731346
vn 0.731346 -0.653218 -0.195959
vn -0.195959 0.653218 -0.731346
vn 0.731346 0.653218 0.195959
vn -0.731346 0.653218 -0.195959
vn 0.195959 0.653218 -0.731346
usemtl default
s 1
f 10/1/1 9/2/2 14/3/3
f 2/4/4 1/5/5 16/6/6
f 14/3/3 17/7/7 10/1/1
f 4/8/8 18/9/9 5/10/10
f 4/8/8 3/11/11 18/9/9
f 7/12/12 6/13/13 22/14/14
f 22/14/14 23/15/15 7/12/12
f 15/16/16 1/5/5 24/17/17
f 11/18/18 17/7/7 12/19/19
f 2/4/4 16/6/6 3/4/11
f 8/2/20 23/20/15 9/2/2
f 5/10/10 19/21/21 6/13/13
f 13/22/22 23/23/15 14/24/3
f 3/25/11 4/26/8 2/27/4
f 9/2/2 13/20/22 14/3/3
f 1/5/5 15/16/16 16/6/6
f 17/7/7 11/18/18 10/1/1
f 18/9/9 19/21/21 5/10/10
f 3/11/11 20/28/23 18/9/9
f 6/13/13 21/29/24 22/14/14
f 23/15/15 8/30/20 7/12/12
f 1/5/5 12/19/19 24/17/17
f 17/7/7 24/17/17 12/19/19
f 16/6/6 20/6/23 3/4/11
f 23/20/15 13/20/22 9/2/2
f 19/21/21 21/29/24 6/13/13
f 23/23/15 22/31/14 14/24/3
f 22/31/14 21/32/24 19/33/21
f 14/24/3 22/31/14 19/33/21
f 20/34/23 19/33/21 18/35/9
f 14/24/3 19/33/21 20/34/23
f 17/36/7 14/24/3 24/37/17
f 14/24/3 20/34/23 24/37/17
f 20/34/23 16/38/6 24/37/17
f 16/38/6 15/39/16 24/37/17
f 1/40/5 11/41/18 12/42/19
f 1/40/5 10/43/1 11/41/18
f 2/27/4 4/26/8 1/40/5
f 1/40/5 4/26/8 10/43/1
f 4/26/8 5/44/10 6/45/13
f 10/43/1 4/26/8 6/45/13
f 9/46/2 10/43/1 6/45/13
f 8/47/20 9/46/2 7/48/12
f 9/46/2 6/45/13 7/48/12
